<?xml version="1.0" encoding="utf-8"?>
<!-- Generator: Adobe Illustrator 23.0.6, SVG Export Plug-In . SVG Version: 6.00 Build 0)  -->
<svg version="1.1" id="Layer_1" xmlns="http://www.w3.org/2000/svg" xmlns:xlink="http://www.w3.org/1999/xlink" x="0px" y="0px"
	 viewBox="0 0 38 50" style="enable-background:new 0 0 38 50;" xml:space="preserve">
<style type="text/css">
	.st0{fill:#7C7C7C;}
</style>
<path class="st0" d="M6,27.2C6,27,6.6,24.6,6.7,24.4c-1-1.5-2.1-6.3-1.2-10.2c0.9-5.7,7-8.6,12.7-8.6v0c7.2,0,12.6,4,12.6,10.9
	c0,5.4-3.2,12.5-8.8,12.5c0,0,0,0,0,0c-2,0-4.5-0.9-5.1-1.8c-0.8-1-0.9-2.3-0.5-3.6c1-3.1,2.2-6.9,2.4-9.4c0.1-2.4-1.5-3.9-3.7-3.9
	c-1.6,0-3.8,0.9-4.8,3.6c-0.9,2.2-0.9,4.5,0.1,7.1c0.4,1-1.6,7.5-2.2,9.6C6.4,36,4.3,42.7,4.8,46.4L5.2,50l2.2-2.9
	c3-4,6.1-14.2,7-16.7c2.5,3.2,7.6,3.3,8.2,3.3c7.3,0,15.7-7.3,15.4-17.4C37.8,7.4,31.3,0,19.6,0v0C8.4,0,1.9,6,0.4,13.5
	C-1.1,20.4,2.1,25.7,6,27.2z"/>
</svg>
