<?xml version="1.0" encoding="utf-8"?>
<!-- Generator: Adobe Illustrator 23.0.6, SVG Export Plug-In . SVG Version: 6.00 Build 0)  -->
<svg version="1.1" id="Layer_1" xmlns="http://www.w3.org/2000/svg" xmlns:xlink="http://www.w3.org/1999/xlink" x="0px" y="0px"
	 viewBox="0 0 61.5 50" style="enable-background:new 0 0 61.5 50;" xml:space="preserve">
<style type="text/css">
	.st0{fill:#7D7D7D;}
</style>
<path class="st0" d="M19.4,50c23.2,0,35.9-19.2,35.9-35.9c0-0.5,0-1.1,0-1.6c2.5-1.8,4.6-4,6.3-6.5c-2.3,1-4.7,1.7-7.3,2
	c2.6-1.6,4.6-4.1,5.6-7c-2.5,1.5-5.2,2.5-8,3.1C47-1.1,39-1.3,34,3.4c-3.3,3.1-4.7,7.7-3.7,12.1C20.2,15,10.7,10.2,4.3,2.3
	C0.9,8.1,2.6,15.5,8.2,19.2c-2-0.1-4-0.6-5.7-1.6c0,0.1,0,0.1,0,0.2c0,6,4.2,11.2,10.1,12.4c-1.9,0.5-3.8,0.6-5.7,0.2
	c1.7,5.1,6.4,8.7,11.8,8.8c-4.5,3.5-10,5.4-15.7,5.4c-1,0-2-0.1-3-0.2C5.8,48,12.5,50,19.4,50"/>
</svg>
